HIERARCHY
ROOT mixamorig:Hips
{
	OFFSET 0.000000 201.639420 0.000000
	CHANNELS 6 Xposition Yposition Zposition Xrotation Yrotation Zrotation
	JOINT mixamorig:Spine
	{
		OFFSET 0.006200 19.524994 -2.481800
		CHANNELS 3 Xrotation Yrotation Zrotation
		JOINT mixamorig:Spine1
		{
			OFFSET -0.000900 22.835007 -2.825400
			CHANNELS 3 Xrotation Yrotation Zrotation
			JOINT mixamorig:Spine2
			{
				OFFSET -0.020600 26.552490 -3.193300
				CHANNELS 3 Xrotation Yrotation Zrotation
				JOINT mixamorig:Neck
				{
					OFFSET -0.060000 30.701813 1.352200
					CHANNELS 3 Xrotation Yrotation Zrotation
					JOINT mixamorig:Head
					{
						OFFSET -0.087200 22.547607 3.670900
						CHANNELS 3 Xrotation Yrotation Zrotation
						JOINT mixamorig:HeadTop_End
						{
							OFFSET -0.830600 40.355194 7.893500
							CHANNELS 3 Xrotation Yrotation Zrotation
							End Site
							{
								OFFSET 0.000000 30.592346 0.000000
							}
						}
						JOINT mixamorig:RightEye
						{
							OFFSET -6.302100 18.118591 16.197100
							CHANNELS 3 Xrotation Yrotation Zrotation
							End Site
							{
								OFFSET 0.000000 30.592346 0.000000
							}
						}
						JOINT mixamorig:LeftEye
						{
							OFFSET 6.741500 18.382690 16.401899
							CHANNELS 3 Xrotation Yrotation Zrotation
							End Site
							{
								OFFSET 0.000000 30.592346 0.000000
							}
						}
					}
				}
				JOINT mixamorig:LeftShoulder
				{
					OFFSET 11.924900 18.230499 1.425400
					CHANNELS 3 Xrotation Yrotation Zrotation
					JOINT mixamorig:LeftArm
					{
						OFFSET 25.435989 -0.697632 -5.229300
						CHANNELS 3 Xrotation Yrotation Zrotation
						JOINT mixamorig:LeftForeArm
						{
							OFFSET 54.684776 0.000000 0.000000
							CHANNELS 3 Xrotation Yrotation Zrotation
							JOINT mixamorig:LeftHand
							{
								OFFSET 55.098175 0.000000 0.000000
								CHANNELS 3 Xrotation Yrotation Zrotation
								JOINT mixamorig:LeftHandMiddle1
								{
									OFFSET 23.369751 0.000000 0.000000
									CHANNELS 3 Xrotation Yrotation Zrotation
									JOINT mixamorig:LeftHandMiddle2
									{
										OFFSET 6.378677 0.000000 0.000000
										CHANNELS 3 Xrotation Yrotation Zrotation
										JOINT mixamorig:LeftHandMiddle3
										{
											OFFSET 6.148331 0.000000 0.000000
											CHANNELS 3 Xrotation Yrotation Zrotation
											JOINT mixamorig:LeftHandMiddle4
											{
												OFFSET 6.582504 0.000000 0.000000
												CHANNELS 3 Xrotation Yrotation Zrotation
												End Site
												{
													OFFSET -1.168900 6.395691 1.028606
												}
											}
										}
									}
								}
								JOINT mixamorig:LeftHandThumb1
								{
									OFFSET 7.235672 -3.848206 5.434273
									CHANNELS 3 Xrotation Yrotation Zrotation
									JOINT mixamorig:LeftHandThumb2
									{
										OFFSET 6.568451 -3.792297 3.792300
										CHANNELS 3 Xrotation Yrotation Zrotation
										JOINT mixamorig:LeftHandThumb3
										{
											OFFSET 6.063080 -3.500519 3.500518
											CHANNELS 3 Xrotation Yrotation Zrotation
											JOINT mixamorig:LeftHandThumb4
											{
												OFFSET 4.793182 -2.767334 2.767349
												CHANNELS 3 Xrotation Yrotation Zrotation
												End Site
												{
													OFFSET 0.101639 6.054260 1.275483
												}
											}
										}
									}
								}
								JOINT mixamorig:LeftHandIndex1
								{
									OFFSET 23.101074 -0.309540 4.992809
									CHANNELS 3 Xrotation Yrotation Zrotation
									JOINT mixamorig:LeftHandIndex2
									{
										OFFSET 6.226883 0.000000 0.000000
										CHANNELS 3 Xrotation Yrotation Zrotation
										JOINT mixamorig:LeftHandIndex3
										{
											OFFSET 6.094330 0.000000 0.000000
											CHANNELS 3 Xrotation Yrotation Zrotation
											JOINT mixamorig:LeftHandIndex4
											{
												OFFSET 5.482605 0.000000 0.000000
												CHANNELS 3 Xrotation Yrotation Zrotation
												End Site
												{
													OFFSET -1.427902 5.233032 0.797164
												}
											}
										}
									}
								}
								JOINT mixamorig:LeftHandRing1
								{
									OFFSET 22.299240 0.021149 -3.964172
									CHANNELS 3 Xrotation Yrotation Zrotation
									JOINT mixamorig:LeftHandRing2
									{
										OFFSET 6.321869 0.000000 0.000000
										CHANNELS 3 Xrotation Yrotation Zrotation
										JOINT mixamorig:LeftHandRing3
										{
											OFFSET 5.899796 0.000000 0.000000
											CHANNELS 3 Xrotation Yrotation Zrotation
											JOINT mixamorig:LeftHandRing4
											{
												OFFSET 6.517899 0.000000 0.000000
												CHANNELS 3 Xrotation Yrotation Zrotation
												End Site
												{
													OFFSET -1.637299 6.232208 0.980890
												}
											}
										}
									}
								}
								JOINT mixamorig:LeftHandPinky1
								{
									OFFSET 20.463791 -0.302338 -8.562233
									CHANNELS 3 Xrotation Yrotation Zrotation
									JOINT mixamorig:LeftHandPinky2
									{
										OFFSET 6.908646 0.000000 0.000000
										CHANNELS 3 Xrotation Yrotation Zrotation
										JOINT mixamorig:LeftHandPinky3
										{
											OFFSET 4.622849 0.000000 0.000000
											CHANNELS 3 Xrotation Yrotation Zrotation
											JOINT mixamorig:LeftHandPinky4
											{
												OFFSET 5.216080 0.000000 0.000000
												CHANNELS 3 Xrotation Yrotation Zrotation
												End Site
												{
													OFFSET -0.606308 5.116241 0.814926
												}
											}
										}
									}
								}
							}
						}
					}
				}
				JOINT mixamorig:RightShoulder
				{
					OFFSET -12.001300 18.284088 1.348900
					CHANNELS 3 Xrotation Yrotation Zrotation
					JOINT mixamorig:RightArm
					{
						OFFSET -25.308500 -0.751312 -5.164599
						CHANNELS 3 Xrotation Yrotation Zrotation
						JOINT mixamorig:RightForeArm
						{
							OFFSET -54.684429 0.000000 0.000000
							CHANNELS 3 Xrotation Yrotation Zrotation
							JOINT mixamorig:RightHand
							{
								OFFSET -55.150291 0.000000 0.000000
								CHANNELS 3 Xrotation Yrotation Zrotation
								JOINT mixamorig:RightHandMiddle1
								{
									OFFSET -23.317566 0.000000 0.000000
									CHANNELS 3 Xrotation Yrotation Zrotation
									JOINT mixamorig:RightHandMiddle2
									{
										OFFSET -6.378403 0.000000 0.000000
										CHANNELS 3 Xrotation Yrotation Zrotation
										JOINT mixamorig:RightHandMiddle3
										{
											OFFSET -6.148193 0.000000 0.000000
											CHANNELS 3 Xrotation Yrotation Zrotation
											JOINT mixamorig:RightHandMiddle4
											{
												OFFSET -6.583389 0.000000 0.000000
												CHANNELS 3 Xrotation Yrotation Zrotation
												End Site
												{
													OFFSET 1.171692 6.395905 1.029786
												}
											}
										}
									}
								}
								JOINT mixamorig:RightHandThumb1
								{
									OFFSET -7.190521 -3.860474 5.435846
									CHANNELS 3 Xrotation Yrotation Zrotation
									JOINT mixamorig:RightHandThumb2
									{
										OFFSET -6.567429 -3.791718 3.791708
										CHANNELS 3 Xrotation Yrotation Zrotation
										JOINT mixamorig:RightHandThumb3
										{
											OFFSET -6.062469 -3.500153 3.500166
											CHANNELS 3 Xrotation Yrotation Zrotation
											JOINT mixamorig:RightHandThumb4
											{
												OFFSET -4.792618 -2.767029 2.767022
												CHANNELS 3 Xrotation Yrotation Zrotation
												End Site
												{
													OFFSET -0.100327 6.053253 1.276754
												}
											}
										}
									}
								}
								JOINT mixamorig:RightHandIndex1
								{
									OFFSET -23.048981 -0.310791 4.992554
									CHANNELS 3 Xrotation Yrotation Zrotation
									JOINT mixamorig:RightHandIndex2
									{
										OFFSET -6.227539 0.000000 0.000000
										CHANNELS 3 Xrotation Yrotation Zrotation
										JOINT mixamorig:RightHandIndex3
										{
											OFFSET -6.095047 0.000000 0.000000
											CHANNELS 3 Xrotation Yrotation Zrotation
											JOINT mixamorig:RightHandIndex4
											{
												OFFSET -5.484772 0.000000 0.000000
												CHANNELS 3 Xrotation Yrotation Zrotation
												End Site
												{
													OFFSET 1.420593 5.237305 0.797056
												}
											}
										}
									}
								}
								JOINT mixamorig:RightHandRing1
								{
									OFFSET -22.246323 0.020569 -3.963762
									CHANNELS 3 Xrotation Yrotation Zrotation
									JOINT mixamorig:RightHandRing2
									{
										OFFSET -6.322128 0.000000 0.000000
										CHANNELS 3 Xrotation Yrotation Zrotation
										JOINT mixamorig:RightHandRing3
										{
											OFFSET -5.900024 0.000000 0.000000
											CHANNELS 3 Xrotation Yrotation Zrotation
											JOINT mixamorig:RightHandRing4
											{
												OFFSET -6.518356 0.000000 0.000000
												CHANNELS 3 Xrotation Yrotation Zrotation
												End Site
												{
													OFFSET 1.636398 6.232697 0.982186
												}
											}
										}
									}
								}
								JOINT mixamorig:RightHandPinky1
								{
									OFFSET -20.411011 -0.303314 -8.561701
									CHANNELS 3 Xrotation Yrotation Zrotation
									JOINT mixamorig:RightHandPinky2
									{
										OFFSET -6.907349 0.000000 0.000000
										CHANNELS 3 Xrotation Yrotation Zrotation
										JOINT mixamorig:RightHandPinky3
										{
											OFFSET -4.623840 0.000000 0.000000
											CHANNELS 3 Xrotation Yrotation Zrotation
											JOINT mixamorig:RightHandPinky4
											{
												OFFSET -5.218353 0.000000 0.000000
												CHANNELS 3 Xrotation Yrotation Zrotation
												End Site
												{
													OFFSET 0.602097 5.118835 0.816273
												}
											}
										}
									}
								}
							}
						}
					}
				}
			}
		}
	}
	JOINT mixamorig:LeftUpLeg
	{
		OFFSET 18.168400 -13.561905 -0.039000
		CHANNELS 3 Xrotation Yrotation Zrotation
		JOINT mixamorig:LeftLeg
		{
			OFFSET 0.577358 -80.825211 -3.695000
			CHANNELS 3 Xrotation Yrotation Zrotation
			JOINT mixamorig:LeftFoot
			{
				OFFSET -0.577356 -83.370262 -6.520700
				CHANNELS 3 Xrotation Yrotation Zrotation
				JOINT mixamorig:LeftToeBase
				{
					OFFSET 0.750401 -20.798306 25.135401
					CHANNELS 3 Xrotation Yrotation Zrotation
					JOINT mixamorig:LeftToe_End
					{
						OFFSET -0.000500 0.001200 19.917799
						CHANNELS 3 Xrotation Yrotation Zrotation
						End Site
						{
							OFFSET 0.000000 19.917805 0.000000
						}
					}
				}
			}
		}
	}
	JOINT mixamorig:RightUpLeg
	{
		OFFSET -18.162500 -13.585098 -0.041000
		CHANNELS 3 Xrotation Yrotation Zrotation
		JOINT mixamorig:RightLeg
		{
			OFFSET -0.595024 -80.945297 -3.631900
			CHANNELS 3 Xrotation Yrotation Zrotation
			JOINT mixamorig:RightFoot
			{
				OFFSET 0.595024 -83.218193 -6.561200
				CHANNELS 3 Xrotation Yrotation Zrotation
				JOINT mixamorig:RightToeBase
				{
					OFFSET -0.753601 -20.807106 25.115000
					CHANNELS 3 Xrotation Yrotation Zrotation
					JOINT mixamorig:RightToe_End
					{
						OFFSET 0.000299 0.001700 19.918200
						CHANNELS 3 Xrotation Yrotation Zrotation
						End Site
						{
							OFFSET 0.000000 19.918203 0.000000
						}
					}
				}
			}
		}
	}
}
MOTION
Frames: 4
Frame Time: 0.033333
0.389858 197.368790 -0.062773 -0.893084 1.580406 -4.939448 1.289226 -1.209696 2.597201 0.728743 0.263523 5.944685 0.710789 0.781493 5.851999 1.045307 -0.304693 -2.163992 1.584930 0.544179 -8.140494 0.000000 -0.000000 0.000000 0.000000 -0.000000 0.000000 0.000000 -0.000000 0.000000 3.582359 -13.764042 -5.044452 4.032779 3.514251 -83.678369 0.000005 -14.506750 0.000021 -27.592516 3.698848 -9.416257 0.912592 8.769294 -15.831726 0.919074 3.991127 -33.400417 0.170575 1.488879 -12.264405 -0.000000 0.000001 -0.000000 18.491265 -0.461396 10.916094 1.284023 32.757621 -3.088967 2.117135 9.311162 -0.358636 0.000002 0.000001 -0.000000 0.339536 4.671329 -7.844280 0.387030 2.823571 -20.566219 0.034628 0.816836 -10.169820 -0.000000 0.000000 -0.000002 2.555828 11.673037 -26.909188 1.710652 3.886785 -40.215464 0.544859 1.835066 -19.344156 -0.000000 0.000001 0.000002 5.576078 16.029160 -36.940624 1.378697 4.077636 -45.645632 0.486589 2.853396 -20.524739 0.000000 0.000000 0.000001 4.508129 3.324372 5.471573 -1.219628 0.655870 67.345460 0.000004 17.736791 -0.000013 -11.193154 -9.123236 10.139289 0.912587 -8.769261 15.831740 0.919073 -3.991137 33.400404 0.216470 -1.688830 15.898063 0.000000 0.000000 -0.000001 18.491279 0.461431 -10.916087 1.284058 -32.757611 3.088960 2.008692 -8.430483 1.114700 0.000000 0.000002 -0.000001 0.339565 -4.671352 7.844270 0.387031 -2.823569 20.566229 -0.193124 -0.216347 13.843947 0.000001 0.000000 0.000001 2.555806 -11.673031 26.909164 1.710651 -3.886784 40.215467 -0.157954 0.035284 17.815346 -0.000001 0.000000 0.000000 5.576086 -16.029160 36.940648 1.378687 -4.077638 45.645611 -0.727750 -0.247556 22.122744 -0.000001 0.000000 0.000001 -21.762137 10.167106 16.261142 23.290182 9.557555 2.420539 -0.302667 3.253991 -9.014166 -0.441966 -0.000002 0.000002 0.000000 -0.000000 -0.000000 -1.841460 -4.999881 10.403462 9.671517 -5.099508 3.266167 -6.900426 0.890232 -8.325058 -0.548655 -0.000001 0.000001 -0.000000 -0.000000 0.000000 
0.355682 197.351730 -0.034930 -0.615487 2.119523 -4.719881 0.945099 -1.215344 2.616187 0.647082 0.258143 5.880855 0.628959 0.765306 5.788998 1.063634 -0.247435 -2.163993 1.979992 1.166391 -8.230665 -0.000000 0.000000 0.000000 -0.000000 0.000000 0.000000 -0.000000 0.000000 0.000000 3.789368 -13.434310 -4.611292 4.131159 2.955998 -83.808982 0.000005 -14.926801 0.000010 -27.447631 4.679676 -9.212411 0.912589 8.769299 -15.831754 0.919074 3.991124 -33.400417 0.170570 1.488882 -12.264410 0.000002 0.000001 0.000002 18.491257 -0.461399 10.916090 1.284021 32.757618 -3.088967 2.117134 9.311161 -0.358636 0.000001 -0.000001 -0.000000 0.339534 4.671332 -7.844286 0.387032 2.823582 -20.566244 0.034630 0.816836 -10.169819 -0.000003 0.000000 0.000000 2.555827 11.673042 -26.909193 1.710649 3.886790 -40.215481 0.544860 1.835069 -19.344153 -0.000001 -0.000001 0.000002 5.576084 16.029168 -36.940651 1.378688 4.077639 -45.645628 0.486592 2.853395 -20.524736 -0.000001 0.000001 0.000002 4.670645 2.992578 5.292029 -0.750169 0.975495 67.387145 0.000004 18.087326 -0.000016 -11.669344 -9.468153 9.820887 0.974239 -8.852314 16.974842 0.980783 -4.086408 34.538798 0.248780 -1.797526 17.031925 0.000001 -0.000001 0.000002 18.731531 0.571599 -11.099058 1.284059 -32.757611 3.088959 2.008689 -8.430481 1.114700 0.000000 0.000007 -0.000001 0.352889 -4.808814 9.123890 0.433859 -2.944103 21.848092 -0.186805 -0.349884 15.123022 0.000001 0.000000 0.000001 2.665782 -11.718772 27.993991 1.788206 -3.960552 41.289245 -0.147174 -0.073559 18.879643 -0.000001 0.000000 -0.000001 5.628919 -16.036757 38.020221 1.449730 -4.158273 46.715827 -0.731150 -0.368066 23.186407 -0.000001 -0.000000 0.000001 -22.022535 10.172201 15.927323 23.121643 9.078025 2.418961 -0.189099 3.241799 -8.881198 -0.331358 0.000002 -0.000000 0.000000 0.000002 0.000000 -2.423539 -5.045786 10.144024 10.212850 -5.106113 3.369155 -7.227066 0.399029 -8.388892 -0.574335 -0.000002 -0.000000 -0.000000 -0.000001 0.000000 
0.414691 197.314453 -0.114691 -0.284812 2.901811 -4.444875 0.779573 -1.160695 2.540000 0.511036 0.240589 5.627148 0.493188 0.724460 5.539377 1.061413 -0.167165 -2.163993 2.245738 2.014302 -8.148792 0.000000 0.000000 0.000000 0.000000 0.000000 0.000000 0.000000 0.000000 0.000000 3.993218 -13.114680 -4.219256 3.978009 1.751901 -83.414812 0.000001 -15.744595 -0.000029 -26.805050 6.898403 -8.326071 0.912587 8.769296 -15.831735 0.919073 3.991139 -33.400445 0.170577 1.488882 -12.264398 -0.000001 -0.000000 0.000001 18.491262 -0.461391 10.916096 1.284026 32.757625 -3.088966 2.117136 9.311165 -0.358637 0.000000 -0.000002 0.000000 0.339535 4.671325 -7.844279 0.387034 2.823579 -20.566236 0.034628 0.816835 -10.169805 -0.000003 0.000000 -0.000003 2.555823 11.673039 -26.909171 1.710655 3.886787 -40.215467 0.544860 1.835074 -19.344163 0.000001 -0.000000 0.000002 5.576079 16.029165 -36.940624 1.378695 4.077642 -45.645639 0.486585 2.853395 -20.524732 -0.000001 0.000000 -0.000000 4.846817 2.627203 5.060974 -0.244205 1.236529 67.408558 0.000006 18.698953 0.000001 -12.108826 -10.570649 9.512807 1.152748 -9.078401 20.145908 1.161708 -4.343971 37.696548 0.349565 -2.095329 20.176585 0.000001 -0.000000 -0.000001 19.399564 0.871691 -11.609425 1.284056 -32.757608 3.088961 2.008689 -8.430480 1.114699 0.000000 0.000000 0.000001 0.407298 -5.186494 12.673875 0.577717 -3.272494 25.403640 -0.153710 -0.719036 18.669858 -0.000000 0.000001 -0.000005 2.973215 -11.835081 31.003523 2.010353 -4.157332 44.267183 -0.106739 -0.374090 21.830809 -0.000001 0.000000 -0.000002 5.776849 -16.067679 41.014876 1.654504 -4.374775 49.684312 -0.728890 -0.702321 26.135789 0.000001 -0.000000 0.000000 -22.399713 10.109413 15.401310 22.968512 8.537083 2.466654 -0.035179 3.227551 -8.679195 -0.328407 0.000002 -0.000004 0.000000 0.000002 -0.000000 -3.290668 -5.123086 9.778809 11.109607 -5.134657 3.483129 -7.708546 -0.271652 -8.425738 -0.637216 0.000002 0.000001 -0.000000 -0.000000 -0.000000 
0.536989 197.218735 -0.338440 -0.062773 3.893633 -4.138420 0.993232 -1.033174 2.365514 0.367255 0.233193 5.226621 0.350341 0.679278 5.144606 1.021734 -0.039703 -2.147091 2.137727 3.380679 -7.851250 -0.000000 0.000001 -0.000000 -0.000000 0.000001 -0.000000 -0.000000 0.000001 -0.000000 4.118564 -12.956037 -3.956379 3.422517 0.442231 -82.545104 -0.000006 -17.029700 -0.000032 -26.472613 9.691566 -6.069091 0.912588 8.769293 -15.831718 0.919074 3.991138 -33.400441 0.170577 1.488880 -12.264401 -0.000001 0.000000 -0.000000 18.491265 -0.461392 10.916110 1.284024 32.757621 -3.088966 2.117135 9.311164 -0.358635 0.000000 0.000001 0.000001 0.339536 4.671330 -7.844288 0.387025 2.823570 -20.566212 0.034630 0.816836 -10.169824 0.000001 0.000000 -0.000000 2.555831 11.673038 -26.909187 1.710649 3.886785 -40.215461 0.544860 1.835070 -19.344156 0.000000 0.000001 0.000000 5.576084 16.029168 -36.940658 1.378694 4.077634 -45.645628 0.486589 2.853396 -20.524736 -0.000002 0.000001 0.000001 4.918961 2.464720 4.805907 0.132810 1.146102 67.322654 0.000000 19.721666 0.000011 -12.317117 -12.281753 9.207888 1.444920 -9.408637 24.963764 1.462951 -4.714929 42.493424 0.533423 -2.535659 24.952119 0.000001 -0.000000 -0.000001 20.418743 1.311984 -12.392443 1.284057 -32.757611 3.088959 2.008693 -8.430479 1.114700 0.000000 0.000000 -0.000000 0.538106 -5.746925 18.068101 0.834446 -3.752312 30.804583 -0.060003 -1.273646 24.054796 0.000001 -0.000000 -0.000001 3.445721 -11.982880 35.574463 2.366463 -4.433339 48.790138 -0.015930 -0.825267 26.311151 -0.000002 -0.000000 0.000000 6.009114 -16.141950 45.564940 1.986237 -4.682446 54.193316 -0.692604 -1.208313 30.613208 0.000002 0.000001 -0.000004 -22.788212 9.972349 14.710115 22.938094 7.921376 2.640090 0.105558 3.207469 -8.481942 -0.325998 0.000007 -0.000005 0.000000 -0.000003 0.000000 -4.334324 -5.162845 9.398093 12.449395 -5.146617 3.518640 -8.394631 -1.215618 -8.410236 -0.705795 0.000003 -0.000000 -0.000000 -0.000001 -0.000000 
